Coordinates
version=1
nRows=8
nColumns=36
inDegrees=yes

Units are S.I. units (second, meters, Newtons, ...)
If the header above contains a line with 'inDegrees', this indicates whether rotational values are in degrees (yes) or radians (no).

endheader
time	pelvis_tilt	pelvis_list	pelvis_rotation	pelvis_tx	pelvis_ty	pelvis_tz	hip_flexion_r	hip_adduction_r	hip_rotation_r	knee_angle_r	knee_angle_r_beta	ankle_angle_r	subtalar_angle_r	mtp_angle_r	hip_flexion_l	hip_adduction_l	hip_rotation_l	knee_angle_l	knee_angle_l_beta	ankle_angle_l	subtalar_angle_l	mtp_angle_l	lumbar_extension	lumbar_bending	lumbar_rotation	arm_flex_r	arm_add_r	arm_rot_r	elbow_flex_r	pro_sup_r	arm_flex_l	arm_add_l	arm_rot_l	elbow_flex_l	pro_sup_l
      1.75000000	     -5.25893393	      3.10842305	      0.60826578	     -0.13551023	      1.20444961	      0.12816637	      3.93517461	     -2.85276320	     -0.55223747	      7.29110249	      0.12725374	     13.11034353	     -4.70976633	     -7.49999826	      4.52699471	     -1.77237092	    -15.47751009	      7.54204722	      0.13163356	     15.06087119	      2.93394059	     -7.49999826	      2.67652596	      0.45196180	      1.58491502	      1.65666811	    -14.23256165	     39.27732699	     37.56706922	     60.10413424	     -5.75631072	    -14.87470411	     23.46567819	     39.33410445	     73.22309153
      1.76666670	     -5.16792460	      3.11194067	      0.63627417	     -0.13450731	      1.20623293	      0.12761837	      3.69884948	     -2.88756390	     -0.76917279	      7.16976054	      0.12513593	     13.13870099	     -4.50888035	     -7.49999839	      4.23774035	     -1.69176812	    -15.40600636	      7.29500513	      0.12732186	     15.09212135	      2.91302078	     -7.49999839	      2.83266773	      0.36727810	      1.29655810	      1.30792581	    -14.76424230	     38.67451696	     38.62995112	     60.26262731	     -5.97401631	    -14.95336211	     23.45755680	     39.28065469	     72.58337719
      1.78333330	     -5.06495618	      3.06962390	      0.66881849	     -0.13268214	      1.20580476	      0.12797086	      3.35153880	     -2.82269610	     -0.67914672	      6.85847446	      0.11970296	     13.12098151	     -4.51934185	     -7.49999854	      3.86603031	     -1.69367299	    -15.46545285	      7.07921453	      0.12355560	     15.10295118	      2.98003257	     -7.49999854	      3.00443190	      0.30568433	      1.00361845	      0.88280759	    -15.20010337	     37.80202471	     39.61663742	     60.37720704	     -6.23474835	    -14.96747164	     23.35257145	     39.22255167	     71.74764678
      1.80000000	     -5.07501152	      3.05085710	      0.69364979	     -0.13445402	      1.20712881	      0.12742903	      3.13534354	     -2.79970489	     -0.70163284	      6.55066073	      0.11433060	     13.08725562	     -4.41948764	     -7.49999866	      3.79338841	     -1.68423805	    -15.57627537	      7.00396467	      0.12224224	     15.19572259	      3.12278324	     -7.49999866	      3.33240609	      0.20634859	      0.87478483	      0.64084184	    -15.60250794	     37.63171727	     40.00969245	     60.56753815	     -6.16939110	    -14.84832278	     23.88238363	     38.39360128	     71.75255495
      1.81666670	     -4.89279223	      3.07335770	      0.71971983	     -0.13396556	      1.20819286	      0.12693428	      2.66372770	     -2.78554678	     -0.62876219	      6.15428824	      0.10741259	     12.98388195	     -4.41670828	     -7.49999878	      3.44034514	     -1.57762558	    -15.53686875	      6.70865096	      0.11708805	     15.00333014	      2.89789058	     -7.49999878	      3.22126848	      0.05303541	      0.60797710	      0.31952468	    -15.80572287	     36.42426570	     40.74992797	     60.57959569	     -6.32436841	    -14.67166435	     23.61795515	     38.22071312	     70.84088486
      1.83333330	     -4.85411440	      3.03413360	      0.74811811	     -0.13438966	      1.20759356	      0.12642966	      2.38304008	     -2.71724737	     -0.54481239	      5.80538079	      0.10132301	     12.99854559	     -4.39124021	     -7.49999886	      3.35563112	     -1.53975241	    -15.33404136	      6.52335027	      0.11385394	     15.07243550	      2.73140268	     -7.49999886	      3.31572726	     -0.01670456	      0.44155065	      0.18157419	    -15.93586401	     36.03650683	     40.63841671	     60.66303136	     -6.08434539	    -14.33800568	     23.94248052	     37.18555783	     70.71148692
      1.85000000	     -4.94871889	      2.92886250	      0.79308804	     -0.13332679	      1.20413445	      0.12745370	      2.36684524	     -2.55099407	     -0.36732644	      5.65314455	      0.09866599	     13.11415553	     -4.51916447	     -7.49999905	      3.38983868	     -1.62579075	    -15.50953292	      6.44513839	      0.11248889	     15.32612027	      3.11238829	     -7.49999905	      3.67566667	     -0.00200941	      0.59125494	     -0.23067274	    -15.96598835	     35.21820382	     40.50418012	     60.97810237	     -5.60717962	    -13.94756261	     24.88829536	     35.76243921	     70.42010943
      1.86666670	     -4.82436220	      2.84939969	      0.81599377	     -0.13173751	      1.20577200	      0.12700586	      2.03361266	     -2.44097243	     -0.28974392	      5.44237694	      0.09498740	     12.98878022	     -4.63944114	     -7.49999918	      3.13676742	     -1.68466404	    -15.38807181	      6.36348291	      0.11106373	     15.21804683	      2.89106574	     -7.49999918	      3.68418139	     -0.02315171	      0.64570021	     -0.46840633	    -15.93172715	     34.55235049	     40.39179177	     61.20894806	     -5.26856046	    -13.60776534	     25.54102670	     34.78286387	     70.46597144
